<svg width="1711" height="1668" viewBox="0 0 1711 1668" fill="none" xmlns="http://www.w3.org/2000/svg">
<path fill-rule="evenodd" clip-rule="evenodd" d="M1214.68 14.4134C1172.07 40.3967 1154.88 73.3176 1154.89 128.863C1154.92 195.137 1172.78 220.013 1244.98 254.284C1309.86 285.089 1328.72 310.724 1328.41 367.695C1328.27 394.262 1321.74 418.084 1306.61 447.305C1279.46 499.727 1276.96 568.397 1300.73 608.695C1343.16 680.632 1338.42 733.16 1284.84 784.702C1259.62 808.964 1239.64 819.124 1184.99 835.479C1124.14 853.69 1112.29 860.325 1076.69 896.127C914.722 1058.98 1096.76 1319.4 1308.79 1228.16C1387.29 1194.39 1438.92 1105.85 1429 1022.06C1426.61 1001.8 1412.55 958.435 1397.78 925.704C1366.12 855.556 1362.4 804.582 1385.63 759.022C1403.08 724.812 1423.13 710.429 1474.75 695.099C1532.24 678.024 1555.58 663.626 1577.55 631.698C1619.46 570.777 1623.99 524.452 1593.94 464.137C1569.23 414.536 1540.05 389.97 1487.82 374.776C1397.29 348.452 1353.81 270.714 1390.56 200.892C1397.15 188.381 1404.37 160.783 1406.61 139.561C1411.83 90.1268 1394.39 51.5801 1353.34 21.8361C1328.61 3.91995 1315.49 -0.0226482 1280.71 9.76207e-05C1252.4 0.0152615 1230.4 4.8222 1214.68 14.4134ZM912.312 47.0385C889.45 60.1477 878.709 77.2451 878.444 100.931C878.11 130.432 889.753 149.357 916.883 163.384C973.765 192.809 1033.67 134.201 1009.94 72.3395C999.219 44.4076 942.511 29.7138 912.312 47.0385ZM662.166 137.741C641.002 150.002 635.885 159.441 635.749 186.448C635.605 215.411 655.867 235.01 685.952 235.01C715.742 235.01 732.949 221.257 738.491 193.029C746.541 151.988 698.118 116.914 662.166 137.741ZM884.887 335.994C835.077 354.646 801.111 380.796 775.785 419.995C745.229 467.291 699.779 511.896 671.148 522.67C622.21 541.094 555.694 524.254 531.506 487.323C524.881 477.216 502.11 458.996 480.901 446.827C360.33 377.657 216.845 474.32 238.206 610.317C248.022 672.785 244.982 716.624 228.943 744.093C208.81 778.568 163.101 803.376 119.409 803.536C55.1515 803.763 6.2213 851.924 0.528581 920.533C-4.06502 975.98 21.4803 1022.34 69.4098 1045.55C124.639 1072.29 172.25 1064.59 216.685 1021.72C250.311 989.286 258.915 958.534 252.835 892.608C248.264 843.03 249.477 835.236 265.525 811.239C290.031 774.611 340.205 750.629 392.781 750.417C447.449 750.197 490.232 730.271 522.645 689.905C589.691 606.42 592.238 604.441 637.325 600.696C696.906 595.76 728.462 609.005 786.087 663.171C856.908 729.748 876.867 738.975 950.213 739.104C1002.62 739.195 1015.6 736.42 1045.82 718.648C1115.04 677.948 1151.54 620.902 1156.98 544.908C1160.02 502.259 1157.66 488.316 1141.52 453.863C1104.05 373.874 1045.78 333.28 961.583 328.519C931.892 326.835 901.412 329.808 884.887 335.994ZM604.852 836.335C509.561 863.183 445.645 958.374 455.939 1058.13C467.12 1166.49 540.193 1231.46 664.318 1243.43C739.112 1250.63 774.36 1263.21 808.069 1294.69C841.884 1326.3 851.837 1369.97 836.919 1421.3C816.824 1490.43 825.299 1540.2 865.474 1588.94C927.541 1664.26 1035.12 1664.35 1119.21 1589.16C1157.68 1554.76 1175.23 1546.69 1211.61 1546.69C1254.32 1546.69 1281.04 1562.35 1313.27 1606.27C1345.77 1650.55 1378.67 1668 1429.67 1668C1459.27 1668 1473.76 1663.23 1498.37 1645.41C1538.48 1616.34 1552.84 1587.71 1552.84 1536.82C1552.84 1487.08 1532.43 1452.58 1488.18 1427.52C1442.93 1401.87 1397.89 1404.31 1352.12 1434.85C1291.55 1475.28 1284.98 1478.22 1255.07 1478.34C1213.85 1478.5 1178.94 1461.45 1153.93 1428.95C1084.33 1338.5 1067.9 1327.71 985.832 1318.5C916.269 1310.7 886.812 1294.29 864.936 1251.11C844.704 1211.18 843.416 1172.46 859.963 1101.72C881.696 1008.86 861.039 935.318 797.555 879.568C782.061 865.965 758.305 850.203 744.767 844.539C707.798 829.094 643.859 825.341 604.852 836.335ZM1638.61 932.672C1602.66 947.009 1595.92 991.492 1625.23 1020.81C1647.66 1043.25 1676.69 1040.87 1698.76 1014.79C1733.38 973.864 1688.61 912.739 1638.61 932.672ZM243.027 1198.28C233.46 1202.12 220.347 1217.91 213.888 1233.37C203.246 1258.85 203.276 1263.85 214.169 1286.7C229.018 1317.85 254.556 1330.31 289.94 1323.67C321.694 1317.71 340.007 1294.9 340.007 1261.3C340.007 1226.66 333.489 1214.02 309.141 1201.43C284.96 1188.92 268.314 1188.12 243.027 1198.28ZM1585.87 1197.86C1564.94 1206.3 1545.26 1234.53 1545.26 1256.11C1545.26 1297.61 1575.39 1326.81 1618.21 1326.81C1645.98 1326.81 1681.7 1288.42 1681.7 1258.57C1681.7 1242.26 1674.67 1227.62 1659.54 1212.5C1637.1 1190.06 1615.72 1185.8 1585.87 1197.86ZM468.871 1377.76C431.174 1391.37 417.576 1441.23 444.834 1465.9C476.413 1494.49 537.092 1470.88 537.092 1430.01C537.092 1397.08 498.085 1367.21 468.871 1377.76Z" fill="#F2EFEB"/>
</svg>
