<svg width="614" height="220" viewBox="0 0 614 220" fill="none" xmlns="http://www.w3.org/2000/svg">
<path fill-rule="evenodd" clip-rule="evenodd" d="M160.244 1.90101C154.623 5.32801 152.355 9.67001 152.357 16.996C152.361 25.737 154.717 29.018 164.242 33.538C172.801 37.601 175.289 40.982 175.248 48.496C175.229 52 174.368 55.142 172.372 58.996C168.79 65.91 168.46 74.967 171.596 80.282C177.194 89.77 176.569 96.698 169.5 103.496C166.173 106.696 163.537 108.036 156.327 110.193C148.3 112.595 146.737 113.47 142.04 118.192C120.673 139.671 144.688 174.018 172.66 161.984C183.015 157.53 189.827 145.853 188.518 134.802C188.202 132.129 186.348 126.41 184.399 122.093C180.222 112.841 179.732 106.118 182.797 100.109C185.099 95.597 187.744 93.7 194.554 91.678C202.137 89.426 205.217 87.527 208.115 83.316C213.644 75.281 214.242 69.171 210.277 61.216C207.017 54.674 203.168 51.434 196.277 49.43C184.334 45.958 178.598 35.705 183.447 26.496C184.316 24.846 185.268 21.206 185.564 18.407C186.253 11.887 183.952 6.80301 178.536 2.88001C175.274 0.51701 173.544 -0.00298712 168.955 1.28754e-05C165.221 0.00201288 162.318 0.63601 160.244 1.90101ZM120.355 6.20401C117.339 7.93301 115.922 10.188 115.887 13.312C115.843 17.203 117.379 19.699 120.958 21.549C128.462 25.43 136.365 17.7 133.234 9.54101C131.82 5.85701 124.339 3.91901 120.355 6.20401ZM87.3547 18.167C84.5627 19.784 83.8877 21.029 83.8697 24.591C83.8507 28.411 86.5237 30.996 90.4927 30.996C94.4227 30.996 96.6927 29.182 97.4237 25.459C98.4857 20.046 92.0977 15.42 87.3547 18.167ZM116.737 44.315C110.166 46.775 105.685 50.224 102.344 55.394C98.3127 61.632 92.3167 67.515 88.5397 68.936C82.0837 71.366 73.3087 69.145 70.1177 64.274C69.2437 62.941 66.2397 60.538 63.4417 58.933C47.5357 49.81 28.6067 62.559 31.4247 80.496C32.7197 88.735 32.3187 94.517 30.2027 98.14C27.5467 102.687 21.5167 105.959 15.7527 105.98C7.27574 106.01 0.820732 112.362 0.0697318 121.411C-0.536268 128.724 2.83374 134.839 9.15674 137.9C16.4427 141.427 22.7237 140.411 28.5857 134.757C33.0217 130.479 34.1567 126.423 33.3547 117.728C32.7517 111.189 32.9117 110.161 35.0287 106.996C38.2617 102.165 44.8807 99.002 51.8167 98.974C59.0287 98.945 64.6727 96.317 68.9487 90.993C77.7937 79.982 78.1297 79.721 84.0777 79.227C91.9377 78.576 96.1007 80.323 103.703 87.467C113.046 96.248 115.679 97.465 125.355 97.482C132.269 97.494 133.981 97.128 137.968 94.784C147.1 89.416 151.915 81.892 152.632 71.869C153.034 66.244 152.722 64.405 150.593 59.861C145.65 49.311 137.962 43.957 126.855 43.329C122.938 43.107 118.917 43.499 116.737 44.315ZM79.7937 110.306C67.2227 113.847 58.7907 126.402 60.1487 139.559C61.6237 153.851 71.2637 162.42 87.6387 163.998C97.5057 164.948 102.156 166.607 106.603 170.76C111.064 174.928 112.377 180.688 110.409 187.458C107.758 196.576 108.876 203.14 114.176 209.569C122.364 219.503 136.556 219.515 147.65 209.597C152.725 205.06 155.04 203.996 159.839 203.996C165.474 203.996 168.998 206.061 173.25 211.854C177.538 217.694 181.878 219.996 188.606 219.996C192.511 219.996 194.423 219.367 197.669 217.016C202.961 213.182 204.855 209.407 204.855 202.694C204.855 196.134 202.163 191.584 196.325 188.278C190.355 184.896 184.414 185.217 178.376 189.246C170.385 194.578 169.518 194.966 165.573 194.981C160.135 195.002 155.529 192.754 152.23 188.467C143.048 176.538 140.881 175.115 130.054 173.9C120.877 172.871 116.991 170.706 114.105 165.011C111.436 159.745 111.266 154.638 113.449 145.308C116.316 133.06 113.591 123.361 105.216 116.008C103.172 114.214 100.038 112.135 98.2517 111.388C93.3747 109.351 84.9397 108.856 79.7937 110.306ZM216.17 123.012C211.428 124.903 210.538 130.77 214.405 134.637C217.364 137.596 221.194 137.283 224.105 133.843C228.673 128.445 222.766 120.383 216.17 123.012ZM32.0607 158.044C30.7987 158.55 29.0687 160.633 28.2167 162.672C26.8127 166.032 26.8167 166.692 28.2537 169.706C30.2127 173.814 33.5817 175.457 38.2497 174.582C42.4387 173.796 44.8547 170.787 44.8547 166.355C44.8547 161.787 43.9947 160.12 40.7827 158.459C37.5927 156.809 35.3967 156.704 32.0607 158.044ZM209.212 157.988C206.451 159.102 203.855 162.825 203.855 165.671C203.855 171.144 207.83 174.996 213.479 174.996C217.143 174.996 221.855 169.933 221.855 165.996C221.855 163.844 220.927 161.914 218.932 159.919C215.971 156.959 213.151 156.398 209.212 157.988ZM61.8547 181.715C56.8817 183.511 55.0877 190.087 58.6837 193.341C62.8497 197.111 70.8547 193.997 70.8547 188.607C70.8547 184.264 65.7087 180.324 61.8547 181.715Z" fill="#F2EFEB"/>
<path d="M504.55 120.616C510.655 120.582 512.22 120.968 516.181 123.48C518.698 125.076 521.148 126.989 521.627 127.73C522.224 128.656 522.652 127.827 522.996 125.077L523.496 121.077H534.496L534.761 149.617L535.027 178.158L532.261 183.566C530.286 187.428 528.442 189.508 525.808 190.841C521.562 192.991 512.455 194.146 509.445 192.916C507.509 192.124 507.467 191.817 508.717 187.455C510.012 182.932 510.141 182.821 514.729 182.304C521.153 181.58 522.996 179.138 522.996 171.351V165.344L519.068 168.895C513.167 174.226 504.48 175.95 495.747 173.525C490.302 172.013 482.61 163.943 480.469 157.497C475.768 143.342 482.062 127.398 494.496 121.966C496.146 121.245 500.67 120.638 504.55 120.616ZM613.996 173.677L602.496 173.077L602.197 168.994L601.897 164.911L598.16 168.648C589.091 177.717 571.74 176.065 563.679 165.365C553.434 151.766 557.83 129.819 572.226 122.692C575.217 121.211 578.397 120.578 582.845 120.578C590.294 120.577 594.758 122.403 598.936 127.162L601.889 130.524L602.496 121.077L613.996 120.478V173.677ZM278.496 122.444C283.521 120.153 295.55 119.947 300.616 122.064C309.626 125.828 316.541 134.937 317.678 144.541L318.276 149.577H274.996V151.942C274.997 157.194 283.499 163.577 290.496 163.577C294.668 163.577 300.519 160.819 303.796 157.307C305.922 155.03 306.455 154.916 310.796 155.815C313.381 156.351 315.906 157.174 316.408 157.646C317.549 158.719 312.972 165.479 309.235 168.243C302.567 173.173 299.79 174.03 290.496 174.021C282.219 174.013 281.049 173.756 275.93 170.826C269.137 166.939 267.688 165.393 264.875 159.04C263.265 155.405 262.689 152.189 262.721 147.023C262.792 135.591 268.223 127.127 278.496 122.444ZM392.496 122.879C396.722 120.864 398.748 120.54 405.585 120.786C412.897 121.049 414.238 121.428 419.549 124.726C426.735 129.188 430.845 135.715 431.703 144.024L432.277 149.577H388.779L389.455 152.327C389.827 153.839 390.753 156.038 391.512 157.213C393.426 160.174 400.866 163.577 405.426 163.577C409.749 163.577 416.318 160.26 418.455 156.999C419.781 154.976 420.285 154.879 424.697 155.793C430.873 157.073 431.484 157.739 429.67 161.212C427.646 165.089 423.414 168.883 417.996 171.678C414.315 173.578 411.95 173.997 404.996 173.984C395.383 173.966 391.41 172.636 385.515 167.459C380.151 162.75 377.018 155.587 377.006 148.005C376.987 136.113 382.086 127.841 392.496 122.879ZM443.515 120.577C448.695 120.577 448.996 120.714 448.996 123.077C448.996 124.452 449.201 125.577 449.452 125.577C449.703 125.577 451.566 124.452 453.591 123.077C460.025 118.711 467.351 120.243 472.534 127.039C473.987 128.944 475.42 132.319 475.718 134.54L476.259 138.577H470.596C466.106 138.577 464.805 138.215 464.313 136.827C461.77 129.658 452.782 129.751 450.035 136.975C449.464 138.479 448.996 147.351 448.996 156.692V173.677L437.496 173.077L437.214 149.077C437.059 135.877 437.181 124.065 437.484 122.827C437.972 120.834 438.661 120.577 443.515 120.577ZM338.051 125.011C340.84 121.651 345.107 120.358 352.105 120.753C360.682 121.238 366.157 124.706 369.942 132.054C372.361 136.75 372.513 137.984 372.825 155.295L373.155 173.577H361.198L360.834 156.827C360.522 142.459 360.202 139.679 358.585 137.276C354.682 131.479 347.326 129.975 341.249 133.73C335.838 137.075 334.996 140.348 334.996 158.045V173.577H322.996V147.744C322.996 133.535 323.316 121.59 323.708 121.199C324.099 120.807 326.686 120.62 329.458 120.782C334.125 121.055 334.519 121.279 334.812 123.827C335.17 126.938 336.154 127.297 338.051 125.011ZM552.996 173.577H540.996V120.577H552.996V173.577ZM599.601 139.779C595.492 131.834 583.986 128.947 576.94 134.093C567.698 140.843 567.87 154.755 577.272 160.944C580.82 163.28 582.31 163.662 586.588 163.332C592.475 162.877 597.231 159.957 599.626 155.325C601.688 151.337 601.676 143.792 599.601 139.779ZM506.796 131.583C504.431 131.587 501.146 132.289 499.496 133.143C492.957 136.527 490.183 142.481 491.293 150.752C492.752 161.629 507.341 167.129 516.401 160.218C528.458 151.021 521.931 131.561 506.796 131.583ZM296.957 133.058C292.612 130.811 285.808 131.158 282.381 133.804C278.826 136.547 277.071 138.688 277.029 140.327C276.991 141.809 302.513 142.165 303.423 140.695C304.214 139.415 300.292 134.782 296.957 133.058ZM416.48 137.157C412.218 131.526 403.372 129.831 397.363 133.495C393.858 135.633 390.808 139.464 391.597 140.74C391.881 141.2 397.937 141.577 405.055 141.577C418.681 141.577 419.565 141.235 416.48 137.157ZM544.231 99.6143C547.435 98.3273 548.276 98.3838 550.659 100.054C557.287 104.696 551.149 115.405 544.041 111.602C539.378 109.106 539.498 101.516 544.231 99.6143ZM318.996 100.577H306.996V96.3546C306.996 92.1657 306.983 92.1503 305.364 94.461C302.757 98.184 294.381 101.556 287.714 101.567C272.791 101.592 262.807 91.0334 262.731 75.1446C262.706 69.9306 263.298 66.6901 264.987 62.7891C267.657 56.6222 274.513 50.0828 279.873 48.5938C288.842 46.1029 298.514 48.2764 304.246 54.0704L306.996 56.8506V26.5772H318.996V100.577ZM341.289 49.0264C356.756 44.1915 373.468 52.0732 377.554 66.129C378.736 70.196 379.06 73.6886 378.634 77.7706C377.167 91.7993 367.914 100.279 352.896 101.353C340.877 102.212 331.058 96.952 326.021 86.9561C322.418 79.8062 322.507 69.0603 326.227 61.9454C329.334 56.0034 335.277 50.9054 341.289 49.0264ZM399.996 48.4717L405.246 48.7755L410.496 49.0772L410.798 54.3272L411.101 59.5772H399.996V70.5303C399.996 85.5232 401.427 88.0628 409.705 87.7589C412.743 87.6469 413.005 87.9313 414.634 93.0967C415.58 96.097 416.058 98.847 415.697 99.21C414.387 100.52 405.141 100.78 401.587 99.6075C397.507 98.2615 392.577 94.4538 390.723 91.2188C389.986 89.9298 389.297 83.2933 388.996 74.5772L388.496 60.0772L384.196 59.7676L379.896 59.4571L380.196 54.2676L380.496 49.0772L388.496 48.0772L388.78 37.3272L389.064 26.5772H399.996V48.4717ZM305.957 79.3057C309.94 66.8679 298.798 55.9797 285.496 59.3106C282.204 60.1346 278.069 63.5356 276.374 66.8126C273.927 71.5456 274.85 81.7138 278.041 85.1739C286.696 94.5559 302.111 91.3157 305.957 79.3057ZM364.936 66.9532C361.52 59.8973 352 56.6534 344.496 59.9893C333.007 65.0953 332.055 82.9953 342.977 88.5674C351.295 92.8114 361.598 89.8703 365.049 82.2686C367.521 76.8246 367.487 72.2222 364.936 66.9532Z" fill="#F2EFEB"/>
</svg>
